<?xml version="1.0" standalone="no"?><!DOCTYPE svg PUBLIC "-//W3C//DTD SVG 1.1//EN" "http://www.w3.org/Graphics/SVG/1.1/DTD/svg11.dtd"><svg t="1735546706778" class="icon" viewBox="0 0 1024 1024" version="1.1" xmlns="http://www.w3.org/2000/svg" p-id="2592" xmlns:xlink="http://www.w3.org/1999/xlink" width="200" height="200"><path d="M512 0c282.7648 0 512 229.2352 512 512S794.7648 1024 512 1024 0 794.7648 0 512 229.2352 0 512 0z" fill="#0ABED7" p-id="2593"></path><path d="M405.2096 617.1648l217.728-216.96-214.912 167.2448a12.8 12.8 0 0 1-14.08 1.088l-103.8848-57.5616a12.8 12.8 0 0 1 0.4736-22.656L682.7904 292.224a12.8 12.8 0 0 1 18.432 12.9408l-46.2848 392.3328a12.8 12.8 0 0 1-19.1232 9.5872l-97.6896-56.448a12.8 12.8 0 0 0-12.4416-0.2176l-105.408 56.32a12.8 12.8 0 0 1-18.816-11.2768v-69.2096a12.8 12.8 0 0 1 3.7504-9.0752zM624.896 404.4032l-0.192-0.2944 1.9456-1.6-1.7536 1.8944z" fill="#FFFFFF" p-id="2594"></path></svg>